<svg id="logo" xmlns="http://www.w3.org/2000/svg" width="1650" height="1650" viewBox="0 0 1650 1650">
  <defs>
    <style>
      .cls-1 {
        fill: #231f20;
        fill-rule: evenodd;
      }

      .cls-2 {
        fill: none;
        stroke: #dcaf31;
        stroke-width: 48.333px;
      }
    </style>
  </defs>
  <path id="Síla_ne" data-name="Síla ne" class="cls-1" d="M329.753,774.66l10-30q25,18.5,49.5,26.75t54,8.25q43.993,0,77.5-14.5t52.5-40.5q19-25.992,19-59.5,0-28-13.25-50.25t-42.25-41.5q-29-19.242-75.5-36.75-34.5-13-53-22.75t-25.25-20q-6.75-10.242-6.75-24.25,0-24,19.5-39.25t50-15.25a88.215,88.215,0,0,1,59,21.75q25.5,21.75,37.5,62.75h19.5l-5.5-108h-12l-9,25q-43.007-31.992-92.5-32-36.5,0-64.25,13.5T335,435.41q-15.75,23.754-15.75,55.25a99.188,99.188,0,0,0,12.5,49q12.493,22.5,38,40.5t64,33q39,14.508,59.25,25.25,20.25,10.758,27.5,21.75t7.25,27q0,27.5-23,44.75t-60.5,17.25q-45,0-76.25-27.5t-38.25-74.5h-19.5l7.5,127.5h12Zm335-251v17q22.992,0,31.75,4,8.742,4.008,11.25,16.5,1.5,6.5,2.5,25.5t1,48v61.5q0,23.508-3.25,35.75-3.258,12.258-12.75,17-9.5,4.758-28.5,5.75v20h157.5v-20q-19.008-1-28.5-5.25T783.5,732.16q-2.754-13-2.75-39.5v-188Zm128.5-104.5q16-7,25.25-13.5t9.25-15q0-10.5-7.5-16.5t-20-6q-19.5,0-42.5,21.5l-63.5,59.5h29.5Zm84.5-40.5v17q22.992,0,31.75,4,8.742,4.008,11.25,16.5,1.5,6.5,2.5,25.5t1,48v206.5q0,23.508-3.25,35.75-3.258,12.258-12.75,17-9.5,4.758-28.5,5.75v20h157.5v-20q-19.02-1-28.5-5.25-9.51-4.242-12.253-17.25t-2.75-39.5v-333Zm466.993,393.5q15-7.5,21.5-19.5l-7.5-14.5a25.5,25.5,0,0,1-8.25,5,24.693,24.693,0,0,1-8.25,1.5q-9.495,0-13.75-10.25t-4.25-32.25V592.66q0-48-24-68t-81-20q-51.495,0-78,14.25t-26.5,39.75q0,14,7.75,22.25t21.75,8.25q13.995,0,22.5-7.5a44.107,44.107,0,0,0,12.5-19q7.005-19,14.5-26.25t22-7.25q21,0,31.25,13.5t10.25,42v21l-70,30q-44.505,19.008-64.75,38.25t-20.25,43.75a59.494,59.494,0,0,0,8,30q7.995,14,24,22.75t39,8.75a99.282,99.282,0,0,0,88.5-53h2.5q0,26,12.25,39.75t35.25,13.75A72.745,72.745,0,0,0,1344.74,772.16Zm-163.5-47.5q-8.505-7.992-8.5-21.5,0-12,8-22.5t26.5-22q18.495-11.5,50-26.5v47.5a50.251,50.251,0,0,1-7.5,26.75,55.218,55.218,0,0,1-19.5,19.25,50.666,50.666,0,0,1-26,7Q1189.735,732.66,1181.24,724.66ZM608.255,1020.58a139.55,139.55,0,0,1,4-18.25,88.3,88.3,0,0,1,5.5-14.5q8.5-16,20-25t27.5-9q32.5,0,45.25,20.25t12.75,71.253v68q0,24.5-3,36.75t-12.25,16.25q-9.258,4.005-29.25,5v20h156.5v-20q-19.008-1.5-28.25-5.5-9.258-4-11.75-16.5-2.508-12.495-2.5-39.5v-70.5q0-31.995-6.5-50.253t-15-29.75q-15.5-20.5-35.25-29.25t-51.75-8.75a105.775,105.775,0,0,0-49.25,11.75,121.593,121.593,0,0,0-39.25,32.25h-2l-6.5-44-96.5,19v17q22.992,0,31.5,4t11.5,17q1.5,6.5,2.5,24.753t1,47.75v62.5q0,25.005-3,37t-12.5,15.75q-9.5,3.75-29,5.25v20h157.5v-20q-20-1.5-29.25-5.5t-11.75-16.5q-2.508-12.495-2.5-39.5v-69A133.053,133.053,0,0,1,608.255,1020.58ZM1095,1154.33a99.56,99.56,0,0,1-41.75,9.5q-24,0-41.75-13T984,1114.08q-9.75-23.745-9.75-56.25a82.4,82.4,0,0,1,.5-10,26.323,26.323,0,0,1,1.5-6.5h161q11.49,0,14-1.75,2.49-1.755,2.5-9.75,0-51-29.5-79.753t-82.5-28.75q-42,0-74.5,18a130.007,130.007,0,0,0-50.75,49.75q-18.258,31.76-18.25,73.253,0,39.5,17.25,69.75a121.774,121.774,0,0,0,48.25,47.25q31,17,72,17,67.995,0,113.5-51.5l-14-17.5Q1115.75,1144.835,1095,1154.33Zm-93.5-186.253q16.74-17.743,38.25-17.75,18.99,0,31.5,14t12.5,36q0,8.5-5.5,10.75t-26,2.25h-72.5Q984.742,985.832,1001.5,968.077Z"/>
  <circle class="cls-2" cx="825" cy="825" r="793"/>
</svg>
